<mxfile host="app.diagrams.net" modified="2023-04-02T12:57:51.335Z" agent="Mozilla/5.0 (Windows NT 10.0; Win64; x64) AppleWebKit/537.36 (KHTML, like Gecko) Chrome/111.0.0.0 Safari/537.36" etag="MNLyyxO2bpaiII8-9flP" version="21.1.2" type="device">
  <diagram id="C5RBs43oDa-KdzZeNtuy" name="Page-1">
    <mxGraphModel dx="989" dy="575" grid="1" gridSize="10" guides="1" tooltips="1" connect="1" arrows="1" fold="1" page="1" pageScale="1" pageWidth="827" pageHeight="1169" math="0" shadow="0">
      <root>
        <mxCell id="WIyWlLk6GJQsqaUBKTNV-0" />
        <mxCell id="WIyWlLk6GJQsqaUBKTNV-1" parent="WIyWlLk6GJQsqaUBKTNV-0" />
        <mxCell id="alkZ7Xr636iCZh5vnlxN-1" value="Pump" style="swimlane;fontStyle=0;childLayout=stackLayout;horizontal=1;startSize=30;horizontalStack=0;resizeParent=1;resizeParentMax=0;resizeLast=0;collapsible=1;marginBottom=0;whiteSpace=wrap;html=1;" vertex="1" parent="WIyWlLk6GJQsqaUBKTNV-1">
          <mxGeometry x="325" y="430" width="150" height="188" as="geometry" />
        </mxCell>
        <mxCell id="alkZ7Xr636iCZh5vnlxN-2" value="+ Id: int" style="text;strokeColor=none;fillColor=none;align=left;verticalAlign=middle;spacingLeft=4;spacingRight=4;overflow=hidden;points=[[0,0.5],[1,0.5]];portConstraint=eastwest;rotatable=0;whiteSpace=wrap;html=1;" vertex="1" parent="alkZ7Xr636iCZh5vnlxN-1">
          <mxGeometry y="30" width="150" height="30" as="geometry" />
        </mxCell>
        <mxCell id="alkZ7Xr636iCZh5vnlxN-8" value="- _power: int" style="text;strokeColor=none;fillColor=none;align=left;verticalAlign=middle;spacingLeft=4;spacingRight=4;overflow=hidden;points=[[0,0.5],[1,0.5]];portConstraint=eastwest;rotatable=0;whiteSpace=wrap;html=1;" vertex="1" parent="alkZ7Xr636iCZh5vnlxN-1">
          <mxGeometry y="60" width="150" height="30" as="geometry" />
        </mxCell>
        <mxCell id="alkZ7Xr636iCZh5vnlxN-25" value="+&amp;lt;get&amp;gt; Power: int" style="text;strokeColor=none;fillColor=none;align=left;verticalAlign=middle;spacingLeft=4;spacingRight=4;overflow=hidden;points=[[0,0.5],[1,0.5]];portConstraint=eastwest;rotatable=0;whiteSpace=wrap;html=1;" vertex="1" parent="alkZ7Xr636iCZh5vnlxN-1">
          <mxGeometry y="90" width="150" height="30" as="geometry" />
        </mxCell>
        <mxCell id="alkZ7Xr636iCZh5vnlxN-3" value="- _enabled: bool" style="text;strokeColor=none;fillColor=none;align=left;verticalAlign=middle;spacingLeft=4;spacingRight=4;overflow=hidden;points=[[0,0.5],[1,0.5]];portConstraint=eastwest;rotatable=0;whiteSpace=wrap;html=1;" vertex="1" parent="alkZ7Xr636iCZh5vnlxN-1">
          <mxGeometry y="120" width="150" height="30" as="geometry" />
        </mxCell>
        <mxCell id="alkZ7Xr636iCZh5vnlxN-7" value="" style="line;html=1;strokeWidth=1;align=left;verticalAlign=middle;spacingTop=-1;spacingLeft=3;spacingRight=3;rotatable=0;labelPosition=right;points=[];portConstraint=eastwest;" vertex="1" parent="alkZ7Xr636iCZh5vnlxN-1">
          <mxGeometry y="150" width="150" height="8" as="geometry" />
        </mxCell>
        <mxCell id="alkZ7Xr636iCZh5vnlxN-4" value="+ ChangeState(): void" style="text;strokeColor=none;fillColor=none;align=left;verticalAlign=middle;spacingLeft=4;spacingRight=4;overflow=hidden;points=[[0,0.5],[1,0.5]];portConstraint=eastwest;rotatable=0;whiteSpace=wrap;html=1;" vertex="1" parent="alkZ7Xr636iCZh5vnlxN-1">
          <mxGeometry y="158" width="150" height="30" as="geometry" />
        </mxCell>
        <mxCell id="alkZ7Xr636iCZh5vnlxN-9" value="WaterTower" style="swimlane;fontStyle=0;childLayout=stackLayout;horizontal=1;startSize=30;horizontalStack=0;resizeParent=1;resizeParentMax=0;resizeLast=0;collapsible=1;marginBottom=0;whiteSpace=wrap;html=1;" vertex="1" parent="WIyWlLk6GJQsqaUBKTNV-1">
          <mxGeometry x="540" y="230" width="180" height="278" as="geometry" />
        </mxCell>
        <mxCell id="alkZ7Xr636iCZh5vnlxN-18" value="+ Id: int" style="text;strokeColor=none;fillColor=none;align=left;verticalAlign=middle;spacingLeft=4;spacingRight=4;overflow=hidden;points=[[0,0.5],[1,0.5]];portConstraint=eastwest;rotatable=0;whiteSpace=wrap;html=1;" vertex="1" parent="alkZ7Xr636iCZh5vnlxN-9">
          <mxGeometry y="30" width="180" height="30" as="geometry" />
        </mxCell>
        <mxCell id="alkZ7Xr636iCZh5vnlxN-10" value="- _maxWaterLevel: int" style="text;strokeColor=none;fillColor=none;align=left;verticalAlign=middle;spacingLeft=4;spacingRight=4;overflow=hidden;points=[[0,0.5],[1,0.5]];portConstraint=eastwest;rotatable=0;whiteSpace=wrap;html=1;" vertex="1" parent="alkZ7Xr636iCZh5vnlxN-9">
          <mxGeometry y="60" width="180" height="30" as="geometry" />
        </mxCell>
        <mxCell id="alkZ7Xr636iCZh5vnlxN-11" value="- _minWaterLevel: int" style="text;strokeColor=none;fillColor=none;align=left;verticalAlign=middle;spacingLeft=4;spacingRight=4;overflow=hidden;points=[[0,0.5],[1,0.5]];portConstraint=eastwest;rotatable=0;whiteSpace=wrap;html=1;" vertex="1" parent="alkZ7Xr636iCZh5vnlxN-9">
          <mxGeometry y="90" width="180" height="30" as="geometry" />
        </mxCell>
        <mxCell id="alkZ7Xr636iCZh5vnlxN-12" value="- _currentWaterLevel: int" style="text;strokeColor=none;fillColor=none;align=left;verticalAlign=middle;spacingLeft=4;spacingRight=4;overflow=hidden;points=[[0,0.5],[1,0.5]];portConstraint=eastwest;rotatable=0;whiteSpace=wrap;html=1;" vertex="1" parent="alkZ7Xr636iCZh5vnlxN-9">
          <mxGeometry y="120" width="180" height="30" as="geometry" />
        </mxCell>
        <mxCell id="alkZ7Xr636iCZh5vnlxN-13" value="- _pump: Pump" style="text;strokeColor=none;fillColor=none;align=left;verticalAlign=middle;spacingLeft=4;spacingRight=4;overflow=hidden;points=[[0,0.5],[1,0.5]];portConstraint=eastwest;rotatable=0;whiteSpace=wrap;html=1;" vertex="1" parent="alkZ7Xr636iCZh5vnlxN-9">
          <mxGeometry y="150" width="180" height="30" as="geometry" />
        </mxCell>
        <mxCell id="alkZ7Xr636iCZh5vnlxN-15" value="" style="line;html=1;strokeWidth=1;align=left;verticalAlign=middle;spacingTop=-1;spacingLeft=3;spacingRight=3;rotatable=0;labelPosition=right;points=[];portConstraint=eastwest;" vertex="1" parent="alkZ7Xr636iCZh5vnlxN-9">
          <mxGeometry y="180" width="180" height="8" as="geometry" />
        </mxCell>
        <mxCell id="alkZ7Xr636iCZh5vnlxN-14" value="+&amp;nbsp;PumpWater(): void" style="text;strokeColor=none;fillColor=none;align=left;verticalAlign=middle;spacingLeft=4;spacingRight=4;overflow=hidden;points=[[0,0.5],[1,0.5]];portConstraint=eastwest;rotatable=0;whiteSpace=wrap;html=1;" vertex="1" parent="alkZ7Xr636iCZh5vnlxN-9">
          <mxGeometry y="188" width="180" height="30" as="geometry" />
        </mxCell>
        <mxCell id="alkZ7Xr636iCZh5vnlxN-16" value="+&amp;nbsp;WaterIncrease(): int" style="text;strokeColor=none;fillColor=none;align=left;verticalAlign=middle;spacingLeft=4;spacingRight=4;overflow=hidden;points=[[0,0.5],[1,0.5]];portConstraint=eastwest;rotatable=0;whiteSpace=wrap;html=1;" vertex="1" parent="alkZ7Xr636iCZh5vnlxN-9">
          <mxGeometry y="218" width="180" height="30" as="geometry" />
        </mxCell>
        <mxCell id="alkZ7Xr636iCZh5vnlxN-17" value="+&amp;nbsp;WaterDecrease(): int" style="text;strokeColor=none;fillColor=none;align=left;verticalAlign=middle;spacingLeft=4;spacingRight=4;overflow=hidden;points=[[0,0.5],[1,0.5]];portConstraint=eastwest;rotatable=0;whiteSpace=wrap;html=1;" vertex="1" parent="alkZ7Xr636iCZh5vnlxN-9">
          <mxGeometry y="248" width="180" height="30" as="geometry" />
        </mxCell>
        <mxCell id="alkZ7Xr636iCZh5vnlxN-19" value="User" style="swimlane;fontStyle=0;childLayout=stackLayout;horizontal=1;startSize=30;horizontalStack=0;resizeParent=1;resizeParentMax=0;resizeLast=0;collapsible=1;marginBottom=0;whiteSpace=wrap;html=1;" vertex="1" parent="WIyWlLk6GJQsqaUBKTNV-1">
          <mxGeometry x="100" y="230" width="150" height="128" as="geometry" />
        </mxCell>
        <mxCell id="alkZ7Xr636iCZh5vnlxN-20" value="+ Id: int" style="text;strokeColor=none;fillColor=none;align=left;verticalAlign=middle;spacingLeft=4;spacingRight=4;overflow=hidden;points=[[0,0.5],[1,0.5]];portConstraint=eastwest;rotatable=0;whiteSpace=wrap;html=1;" vertex="1" parent="alkZ7Xr636iCZh5vnlxN-19">
          <mxGeometry y="30" width="150" height="30" as="geometry" />
        </mxCell>
        <mxCell id="alkZ7Xr636iCZh5vnlxN-21" value="-&amp;nbsp;_consumption: double" style="text;strokeColor=none;fillColor=none;align=left;verticalAlign=middle;spacingLeft=4;spacingRight=4;overflow=hidden;points=[[0,0.5],[1,0.5]];portConstraint=eastwest;rotatable=0;whiteSpace=wrap;html=1;" vertex="1" parent="alkZ7Xr636iCZh5vnlxN-19">
          <mxGeometry y="60" width="150" height="30" as="geometry" />
        </mxCell>
        <mxCell id="alkZ7Xr636iCZh5vnlxN-23" value="" style="line;html=1;strokeWidth=1;align=left;verticalAlign=middle;spacingTop=-1;spacingLeft=3;spacingRight=3;rotatable=0;labelPosition=right;points=[];portConstraint=eastwest;" vertex="1" parent="alkZ7Xr636iCZh5vnlxN-19">
          <mxGeometry y="90" width="150" height="8" as="geometry" />
        </mxCell>
        <mxCell id="alkZ7Xr636iCZh5vnlxN-22" value="ConsumeWater(): double" style="text;strokeColor=none;fillColor=none;align=left;verticalAlign=middle;spacingLeft=4;spacingRight=4;overflow=hidden;points=[[0,0.5],[1,0.5]];portConstraint=eastwest;rotatable=0;whiteSpace=wrap;html=1;" vertex="1" parent="alkZ7Xr636iCZh5vnlxN-19">
          <mxGeometry y="98" width="150" height="30" as="geometry" />
        </mxCell>
        <mxCell id="alkZ7Xr636iCZh5vnlxN-26" value="Simulator" style="swimlane;fontStyle=0;childLayout=stackLayout;horizontal=1;startSize=30;horizontalStack=0;resizeParent=1;resizeParentMax=0;resizeLast=0;collapsible=1;marginBottom=0;whiteSpace=wrap;html=1;" vertex="1" parent="WIyWlLk6GJQsqaUBKTNV-1">
          <mxGeometry x="310" y="50" width="180" height="158" as="geometry" />
        </mxCell>
        <mxCell id="alkZ7Xr636iCZh5vnlxN-27" value="- _user: User" style="text;strokeColor=none;fillColor=none;align=left;verticalAlign=middle;spacingLeft=4;spacingRight=4;overflow=hidden;points=[[0,0.5],[1,0.5]];portConstraint=eastwest;rotatable=0;whiteSpace=wrap;html=1;" vertex="1" parent="alkZ7Xr636iCZh5vnlxN-26">
          <mxGeometry y="30" width="180" height="30" as="geometry" />
        </mxCell>
        <mxCell id="alkZ7Xr636iCZh5vnlxN-28" value="-&amp;nbsp;_waterTower: WaterTower" style="text;strokeColor=none;fillColor=none;align=left;verticalAlign=middle;spacingLeft=4;spacingRight=4;overflow=hidden;points=[[0,0.5],[1,0.5]];portConstraint=eastwest;rotatable=0;whiteSpace=wrap;html=1;" vertex="1" parent="alkZ7Xr636iCZh5vnlxN-26">
          <mxGeometry y="60" width="180" height="30" as="geometry" />
        </mxCell>
        <mxCell id="alkZ7Xr636iCZh5vnlxN-30" value="" style="line;html=1;strokeWidth=1;align=left;verticalAlign=middle;spacingTop=-1;spacingLeft=3;spacingRight=3;rotatable=0;labelPosition=right;points=[];portConstraint=eastwest;" vertex="1" parent="alkZ7Xr636iCZh5vnlxN-26">
          <mxGeometry y="90" width="180" height="8" as="geometry" />
        </mxCell>
        <mxCell id="alkZ7Xr636iCZh5vnlxN-29" value="StartSimulator(): void" style="text;strokeColor=none;fillColor=none;align=left;verticalAlign=middle;spacingLeft=4;spacingRight=4;overflow=hidden;points=[[0,0.5],[1,0.5]];portConstraint=eastwest;rotatable=0;whiteSpace=wrap;html=1;" vertex="1" parent="alkZ7Xr636iCZh5vnlxN-26">
          <mxGeometry y="98" width="180" height="30" as="geometry" />
        </mxCell>
        <mxCell id="alkZ7Xr636iCZh5vnlxN-31" value="GetWaterLevel(): string" style="text;strokeColor=none;fillColor=none;align=left;verticalAlign=middle;spacingLeft=4;spacingRight=4;overflow=hidden;points=[[0,0.5],[1,0.5]];portConstraint=eastwest;rotatable=0;whiteSpace=wrap;html=1;" vertex="1" parent="alkZ7Xr636iCZh5vnlxN-26">
          <mxGeometry y="128" width="180" height="30" as="geometry" />
        </mxCell>
        <mxCell id="alkZ7Xr636iCZh5vnlxN-36" style="edgeStyle=orthogonalEdgeStyle;rounded=0;orthogonalLoop=1;jettySize=auto;html=1;entryX=0.5;entryY=0;entryDx=0;entryDy=0;dashed=1;dashPattern=8 8;" edge="1" parent="WIyWlLk6GJQsqaUBKTNV-1" source="alkZ7Xr636iCZh5vnlxN-27" target="alkZ7Xr636iCZh5vnlxN-19">
          <mxGeometry relative="1" as="geometry" />
        </mxCell>
        <mxCell id="alkZ7Xr636iCZh5vnlxN-37" style="edgeStyle=orthogonalEdgeStyle;rounded=0;orthogonalLoop=1;jettySize=auto;html=1;entryX=0.529;entryY=0.002;entryDx=0;entryDy=0;entryPerimeter=0;dashed=1;dashPattern=8 8;" edge="1" parent="WIyWlLk6GJQsqaUBKTNV-1" source="alkZ7Xr636iCZh5vnlxN-28" target="alkZ7Xr636iCZh5vnlxN-9">
          <mxGeometry relative="1" as="geometry" />
        </mxCell>
        <mxCell id="alkZ7Xr636iCZh5vnlxN-38" style="edgeStyle=orthogonalEdgeStyle;rounded=0;orthogonalLoop=1;jettySize=auto;html=1;entryX=0.5;entryY=0;entryDx=0;entryDy=0;dashed=1;dashPattern=8 8;" edge="1" parent="WIyWlLk6GJQsqaUBKTNV-1" source="alkZ7Xr636iCZh5vnlxN-13" target="alkZ7Xr636iCZh5vnlxN-1">
          <mxGeometry relative="1" as="geometry" />
        </mxCell>
      </root>
    </mxGraphModel>
  </diagram>
</mxfile>
